<?xml version="1.0" encoding="UTF-8" standalone="no"?>
<!-- Created with Inkscape (http://www.inkscape.org/) -->

<svg
   width="1001"
   height="1000.0001"
   viewBox="0 0 264.8479 264.58335"
   version="1.1"
   id="svg1"
   sodipodi:docname="logo.svg"
   inkscape:version="1.4.2 (f4327f4, 2025-05-13)"
   xmlns:inkscape="http://www.inkscape.org/namespaces/inkscape"
   xmlns:sodipodi="http://sodipodi.sourceforge.net/DTD/sodipodi-0.dtd"
   xmlns="http://www.w3.org/2000/svg"
   xmlns:svg="http://www.w3.org/2000/svg">
  <sodipodi:namedview
     id="namedview1"
     pagecolor="#505050"
     bordercolor="#eeeeee"
     borderopacity="1"
     inkscape:showpageshadow="0"
     inkscape:pageopacity="0"
     inkscape:pagecheckerboard="0"
     inkscape:deskcolor="#4e4e4e"
     showgrid="false"
     inkscape:zoom="0.47093306"
     inkscape:cx="382.21993"
     inkscape:cy="415.13331"
     inkscape:window-width="1920"
     inkscape:window-height="1009"
     inkscape:window-x="-8"
     inkscape:window-y="-8"
     inkscape:window-maximized="1"
     inkscape:current-layer="layer1" />
  <defs
     id="defs1">
    <inkscape:path-effect
       effect="mirror_symmetry"
       start_point="-117.98385,-21.911287"
       end_point="-117.98385,33.147845"
       center_point="-117.98385,5.618279"
       id="path-effect53"
       is_visible="true"
       lpeversion="1.2"
       lpesatellites=""
       mode="free"
       discard_orig_path="false"
       fuse_paths="false"
       oposite_fuse="false"
       split_items="false"
       split_open="false"
       link_styles="false" />
    <inkscape:path-effect
       effect="skeletal"
       id="path-effect52"
       is_visible="true"
       lpeversion="1"
       pattern="M 0,4.9921381 C 0,2.2364778 2.2364778,0 4.9921381,0 c 2.7556602,0 4.992138,2.2364778 4.992138,4.9921381 0,2.7556602 -2.2364778,4.992138 -4.992138,4.992138 C 2.2364778,9.9842761 0,7.7477983 0,4.9921381 Z"
       copytype="single_stretched"
       prop_scale="1"
       scale_y_rel="false"
       spacing="0"
       normal_offset="0"
       tang_offset="0"
       prop_units="false"
       vertical_pattern="false"
       hide_knot="false"
       fuse_tolerance="0" />
    <clipPath
       clipPathUnits="userSpaceOnUse"
       id="clipPath127">
      <path
         id="path128"
         style="fill:#ff0000;fill-opacity:1;fill-rule:nonzero;stroke:none;stroke-width:0.116117"
         d="m -108.85206,-37.12694 -41.7224,24.089243 16.551,28.667176 c -0.19487,-0.659348 0.15778,-1.552098 1.32064,-2.223475 l 1.09615,-0.632861 c -0.17802,-0.516941 -0.25345,-1.164814 -0.17694,-1.938907 0.0334,-0.337951 0.0954,-0.672203 0.14443,-1.0080733 0.0348,-0.2537472 0.0738,-0.5069693 0.11873,-0.7591173 0.0341,-0.1909643 0.0283,-0.1107951 0.0333,-0.209072 0.0182,-0.2468754 0.0249,-0.4945498 0.0362,-0.741872 0.003,-0.059146 0.005,-0.1184418 0.009,-0.1775424 0.0114,-0.1888257 0.0296,-0.3769934 0.0443,-0.5655599 0.007,-0.091263 0.0175,-0.1369551 0.0165,-0.1420183 l 2e-4,-1.141e-4 -1.1e-4,-2.028e-4 -1.2e-4,-1.983e-4 -2e-4,1.182e-4 -2e-4,1.151e-4 -2e-4,1.191e-4 c -0.001,0.00165 -0.005,0.00887 -0.0107,0.02137 0.003,-0.2762111 0.007,-0.370139 0.002,-0.5641329 -0.0219,-0.2929235 -0.006,-0.5855805 0.005,-0.8785866 -0.003,-0.2674784 -0.01,-0.5341809 -9e-4,-0.8021307 0.005,-0.1737799 0.0382,-0.345489 0.0508,-0.5184989 -6.7e-4,0.00398 -0.004,0.027413 -0.006,0.031955 l -2.1e-4,1.141e-4 -2e-4,1.192e-4 -2e-4,1.151e-4 -1.1e-4,-2.023e-4 -2e-4,1.141e-4 -1.2e-4,-2.029e-4 -1.2e-4,-1.982e-4 -1.1e-4,-2.029e-4 -1.2e-4,-2.022e-4 -1.2e-4,-1.983e-4 -1.1e-4,-2.028e-4 c -0.007,-0.018163 -0.002,-0.038381 -0.002,-0.057686 2.5e-4,-0.0632 0.002,-0.126591 0.003,-0.1897799 0.0103,-0.2532006 0.0199,-0.5054033 0.0114,-0.7586687 -0.041,-0.3005481 0.0298,-0.6295726 -0.01,-0.9270736 -0.003,-0.1456128 -0.006,-0.2907256 -0.009,-0.4357536 -0.1387,0.072409 -0.27756,0.144685 -0.41638,0.2168252 -0.50893,0.2631335 -1.01817,0.5259411 -1.52725,0.7887948 -3.63815,1.8784015 -5.62436,-1.5128221 -2.54204,-3.55565666 -0.74251,-0.91523564 -0.45799,-2.54589924 1.54172,-3.72335284 0.73645,-0.433597 1.47246,-0.867859 2.20669,-1.3051963 1.04153,-0.620831 2.07627,-1.253306 3.12503,-1.8618498 l 1.41963,-0.8196239 c 3.54851,-2.0487305 5.69263,1.2519078 2.69995,3.4372571 1.92872,0.6474395 1.89834,3.2240953 -1.18043,4.26476988 -0.28978,0.0979526 -0.57214,0.215834 -0.85139,0.34149544 -0.003,0.02500003 -0.006,0.05004967 -0.01,0.07506711 -0.0354,0.24113859 -0.0508,0.33365388 -0.0866,0.63109456 -6.3e-4,0.002587 -10e-4,0.005174 -0.002,0.007439 -8.4e-4,0.04024 -0.003,0.0946394 -0.006,0.16689631 -0.002,0.2452845 -0.0183,0.4891755 -0.0263,0.7337542 0.005,0.2983602 0.009,0.58941 0.0186,0.8387624 0.0115,0.3321058 9e-5,0.6644593 0.0112,0.9964925 0.009,0.3206823 0.006,0.6407853 -0.0102,0.961201 -0.006,0.2944097 -0.003,0.5899563 -0.0487,0.8818192 -0.004,-0.02093 -0.006,-0.032495 -0.006,-0.033982 l -2e-4,1.192e-4 c -5.9e-4,0.00494 0.003,0.049877 0.005,0.1356496 0.004,0.1818287 0.0117,0.3624854 0.009,0.544478 -7.6e-4,0.051672 -0.004,0.1034969 -0.006,0.155109 -0.003,0.063795 -0.006,0.127696 -0.0105,0.1914451 -3.7e-4,0.00516 -0.002,0.018272 -0.003,0.020605 l 1.1e-4,2.029e-4 -2e-4,1.151e-4 -2e-4,1.191e-4 -1.2e-4,-1.982e-4 c 0,-6.8e-6 -1.3e-4,-4.603e-4 -1.5e-4,-7.195e-4 l -1.1e-4,-2.022e-4 -1.2e-4,-1.983e-4 -2.3e-4,-4.051e-4 -1.2e-4,-1.988e-4 -1.2e-4,-2.023e-4 c -0.003,-0.020082 -0.006,-0.066701 -0.008,-0.088631 0.005,0.1446932 0.0241,0.289011 0.0215,0.4340948 0.006,0.2571924 -0.005,0.4951216 -8.4e-4,0.7088592 -0.009,0.3419418 -0.0423,0.6811532 -0.0623,1.0224469 -0.0169,0.3685714 -0.0247,0.7383144 -0.0683,1.1050086 -0.0389,0.2746016 -0.0894,0.54724 -0.13094,0.8214237 0.68093,-0.4012198 1.36244,-0.80128 2.04428,-1.2009536 2.63222,-1.542984 4.19083,1.1157956 1.55861,2.6587696 -0.72195,0.423201 -1.4437,0.847004 -2.16459,1.271984 -1.31808,0.777 -2.63229,1.560673 -3.9575,2.325458 l -1.34677,0.777554 c -1.16284,0.671378 -2.1122,0.530611 -2.58578,0.03216 l 4.03484,6.988555 41.721498,-24.08898842 z m -8.82649,21.058104 0.71944,-0.415368 c 0.66426,-0.391276 1.34823,-0.746902 2.02902,-1.108085 0.55515,-0.293591 1.10647,-0.594463 1.6575,-0.895678 1.07505,-0.587678 1.87678,-0.224979 2.02219,0.387772 1.52066,0.400927 1.96777,2.224888 0.31896,3.700778 0.35169,-0.141949 0.70794,-0.274844 1.08119,-0.347159 0.40803,0.138897 0.89647,0.162808 1.32382,0.27403 0.34591,-0.06135 0.85189,-0.135959 1.04953,-0.03505 0.61406,0.313504 1.23907,0.661686 1.7068,1.168246 0.23396,0.253389 0.27176,0.64898 0.28916,0.993427 0.004,0.07023 0.005,0.135929 0.006,0.197363 0.52639,0.153635 0.70159,0.228799 0.87724,0.45985 0.80128,-0.0564 1.60434,-0.08749 2.40735,-0.03415 0.23888,0.02416 0.47887,0.03738 0.7164,0.07242 0.4417,0.06515 0.92204,0.213641 1.32252,0.391057 0.629086,0.278691 1.143356,0.809187 1.436585,1.4282199 1.529235,-0.1385011 2.466725,0.882644 2.257247,2.1016883 0.342529,-0.2045169 0.680017,-0.417576 1.017792,-0.6297836 0.04331,-0.027177 0.08625,-0.054583 0.129625,-0.081651 2.582445,-1.6249176 4.223907,0.9836769 1.641455,2.6085824 -0.0439,0.027625 -0.08758,0.055351 -0.131589,0.082784 -0.481673,0.3025708 -0.963129,0.6062414 -1.45716,0.8884291 -0.716597,0.4178843 -1.433497,0.8353935 -2.144853,1.2621634 -0.311511,0.1884721 -0.618184,0.3843319 -0.927422,0.5762987 -1.96152,1.2175796 -3.30922,0.00473 -2.73493,-1.3691876 -0.25662,0.00676 -0.51326,0.011757 -0.76969,0.021712 -1.43849,-1.292902 -1.36475,-0.7262664 -1.43935,-2.6236589 -0.005,-0.1369631 0.0632,-0.2668698 0.1029,-0.3982766 -0.59152,0.00454 -1.18227,0.052871 -1.77181,0.1016758 -0.48863,0.04537 -0.9791,0.082053 -1.46621,-0.0072 -0.15692,-0.028755 -0.32576,-0.044564 -0.46065,-0.129739 -0.14535,-0.09178 -0.2835,-0.193646 -0.41845,-0.3002277 -0.3419,0.104012 -0.67971,0.2209688 -1.02331,0.3195034 -0.0809,0.023219 -0.16043,0.053687 -0.24362,0.066543 -0.22735,0.035189 -0.45717,0.051485 -0.68578,0.077233 -0.22777,-0.033616 -0.49582,0.032982 -0.68326,-0.10073 -0.99929,-0.7128957 -1.73088,-1.1839752 -1.63559,-2.3417077 -0.1079,-0.063529 -0.21151,-0.1392496 -0.30986,-0.2277981 -1.59015,-0.3142128 -2.14018,-1.9124988 -1.00436,-3.2210008 l -0.84612,0.488508 c -0.58558,0.331502 -1.15668,0.687716 -1.72813,1.042777 -3.31382,2.0589486 -5.51201,-0.770569 -3.1938,-3.014904 -0.0537,-0.44675 0.22204,-1.001816 0.96317,-1.429706 z m 6.552,1.941549 c -0.0835,0.05299 -0.17559,0.16936 -0.22537,0.380733 0.0483,-0.03666 0.0959,-0.07306 0.1425,-0.109245 0.0647,-0.05086 0.1308,-0.09978 0.19407,-0.152372 0.14355,-0.119304 0.028,-0.207425 -0.1112,-0.119116 z m 1.5079,1.087722 c -0.10548,0.112646 -0.15993,0.168804 -0.18788,0.272406 0.0164,-0.0214 0.0328,-0.0427 0.0491,-0.06422 0.11355,-0.150186 0.18405,-0.214567 0.18879,-0.226838 l 8e-5,-3.18e-4 9e-5,-3.17e-4 8e-5,-3.17e-4 -1.1e-4,-2.03e-4 -1.2e-4,-1.98e-4 2e-4,-1.14e-4 -1.2e-4,-1.99e-4 -1.1e-4,-2.02e-4 -2e-4,1.18e-4 -1.2e-4,-1.98e-4 -3.2e-4,-8.5e-5 -3.2e-4,-8.5e-5 c -0.005,-1.58e-4 -0.0207,0.0075 -0.049,0.02073 z m -17.8994,13.27378502 c 0.21941,0.10516361 0.40757,0.0506253 0.54762,-0.25620146 -0.18333,0.08377329 -0.36549,0.17037869 -0.54762,0.25620146 z m 24.74297,-8.93261492 c -0.003,0.00513 -0.0122,0.052809 -0.0227,0.06781 l -8e-5,3.173e-4 -2e-4,1.181e-4 -2.1e-4,1.151e-4 -2e-4,1.141e-4 -2e-4,1.192e-4 -2e-4,1.141e-4 -2e-4,1.151e-4 -2e-4,1.191e-4 -1.2e-4,-1.982e-4 -2e-4,1.181e-4 -1.2e-4,-1.982e-4 -1.2e-4,-2.023e-4 c -0.002,-0.00254 -0.005,-0.013151 -0.007,-0.017354 0.005,0.034633 0.01,0.069246 0.0147,0.1038758 0.0101,-0.050523 0.0167,-0.1008748 0.0179,-0.150436 1e-5,-0.00183 1.6e-4,-0.00326 5e-5,-0.00396 l -1.1e-4,-2.029e-4 -1.1e-4,-2.023e-4 -1.2e-4,-1.982e-4 -1.2e-4,-2.028e-4 -2e-4,1.141e-4 z" />
    </clipPath>
  </defs>
  <g
     id="layer1">
    <path
       d="m 31.370373,176.38423 v -32.6848 h 3.648951 v 3.07046 q 1.290481,-1.80223 2.914709,-2.6922 1.624227,-0.91225 3.938195,-0.91225 3.025958,0 5.339927,1.55747 2.313968,1.55749 3.493201,4.40545 1.179234,2.82571 1.179234,6.20766 0,3.62671 -1.312732,6.54141 -1.290482,2.89247 -3.782448,4.44995 -2.469715,1.53522 -5.206427,1.53522 -2.002473,0 -3.604452,-0.84549 -1.579726,-0.84549 -2.603213,-2.13596 v 11.50308 z m 3.626701,-20.73671 q 0,4.56118 1.846724,6.74165 1.846723,2.18048 4.472187,2.18048 2.669965,0 4.561188,-2.24722 1.913474,-2.26947 1.913474,-7.00866 0,-4.51669 -1.868975,-6.7639 -1.846725,-2.24723 -4.427688,-2.24723 -2.558715,0 -4.538938,2.40297 -1.957972,2.38073 -1.957972,6.94191 z m 16.93111,11.68109 v -32.61805 h 4.004945 v 11.70333 q 2.803461,-3.24845 7.075402,-3.24845 2.625464,0 4.561186,1.04573 1.935723,1.0235 2.758962,2.84796 0.845489,1.82449 0.845489,5.29542 v 14.97406 h -4.004945 v -14.97406 q 0,-3.00369 -1.312732,-4.36093 -1.290482,-1.37948 -3.671199,-1.37948 -1.779976,0 -3.359703,0.93449 -1.557479,0.91224 -2.224969,2.49197 -0.667491,1.57972 -0.667491,4.36094 v 12.92707 z m 19.06708,-11.81459 q 0,-6.56366 3.648951,-9.72312 3.048207,-2.62546 7.431397,-2.62546 4.872677,0 7.965392,3.20396 3.092702,3.1817 3.092702,8.81087 0,4.5612 -1.379484,7.18666 -1.357231,2.60322 -3.982696,4.04944 -2.603207,1.44623 -5.695914,1.44623 -4.961681,0 -8.03214,-3.18171 -3.048208,-3.1817 -3.048208,-9.16687 z m 4.116193,0 q 0,4.53894 1.980224,6.80841 1.980222,2.24722 4.983931,2.24722 2.981459,0 4.961689,-2.26948 1.980221,-2.26946 1.980221,-6.91965 0,-4.38319 -2.002475,-6.6304 -1.980226,-2.26946 -4.939435,-2.26946 -3.003709,0 -4.983931,2.2472 -1.980224,2.24723 -1.980224,6.78616 z m 26.676463,8.23238 0.5785,3.53771 q -1.69097,0.35599 -3.025953,0.35599 -2.180467,0 -3.381958,-0.68974 -1.201477,-0.68974 -1.690979,-1.80222 -0.489489,-1.13474 -0.489489,-4.73919 V 146.81438 H 90.84108 v -3.11495 h 2.936961 v -5.85167 l 3.982696,-2.40297 v 8.25464 h 4.027183 v 3.11495 h -4.027183 v 13.81706 q 0,1.71324 0.200246,2.20273 0.222499,0.48949 0.689735,0.77874 0.489503,0.28925 1.379482,0.28925 0.6675,0 1.75772,-0.15576 z m -2.359351,-8.23238 q 0,-6.56366 3.648951,-9.72312 3.0482,-2.62546 7.4314,-2.62546 4.87268,0 7.96537,3.20396 3.09272,3.1817 3.09272,8.81087 0,4.5612 -1.37948,7.18666 -1.35723,2.60322 -3.9827,4.04944 -2.60322,1.44623 -5.69591,1.44623 -4.96169,0 -8.03216,-3.18171 -3.048191,-3.1817 -3.048191,-9.16687 z m 4.116181,0 q 0,4.53894 1.98023,6.80841 1.98021,2.24722 4.98394,2.24722 2.98145,0 4.96167,-2.26948 1.98022,-2.26946 1.98022,-6.91965 0,-4.38319 -2.00248,-6.6304 -1.98021,-2.26946 -4.93941,-2.26946 -3.00373,0 -4.98394,2.2472 -1.98023,2.24723 -1.98023,6.78616 z m 17.19811,13.77256 3.89369,0.57849 q 0.24475,1.80224 1.35723,2.62547 1.49074,1.11248 4.0717,1.11248 2.78121,0 4.29419,-1.11248 1.51298,-1.11249 2.04698,-3.11496 0.31149,-1.22374 0.28924,-5.13967 -2.62546,3.0927 -6.5414,3.0927 -4.8727,0 -7.54265,-3.51545 -2.66997,-3.51546 -2.66997,-8.43264 0,-3.38195 1.22373,-6.22991 1.22374,-2.87021 3.53771,-4.4277 2.3362,-1.55747 5.47341,-1.55747 4.18295,0 6.8974,3.38195 v -2.84796 h 3.69347 v 20.42522 q 0,5.51792 -1.13474,7.80965 -1.11248,2.31396 -3.55995,3.64894 -2.42523,1.33498 -5.98517,1.33498 -4.22743,0 -6.83064,-1.91346 -2.60323,-1.89123 -2.51423,-5.71818 z m 3.31521,-14.19531 q 0,4.6502 1.84672,6.78616 1.84673,2.13597 4.62793,2.13597 2.75897,0 4.62795,-2.11372 1.86897,-2.13596 1.86897,-6.6749 0,-4.3387 -1.93573,-6.54141 -1.91347,-2.20271 -4.62793,-2.20271 -2.66997,0 -4.53894,2.18046 -1.86897,2.15821 -1.86897,6.43015 z m 17.93233,12.23734 v -23.62918 h 3.60446 v 3.58221 q 1.37949,-2.51422 2.53646,-3.31521 1.17923,-0.80099 2.58097,-0.80099 2.02473,0 4.1162,1.29048 l -1.37949,3.71569 q -1.46848,-0.86773 -2.93696,-0.86773 -1.31274,0 -2.35848,0.80099 -1.04573,0.77875 -1.49071,2.18047 -0.6675,2.13597 -0.6675,4.67243 v 12.37084 z m 25.85325,-2.91471 q -2.22498,1.89122 -4.2942,2.66995 -2.04697,0.77875 -4.40545,0.77875 -3.89368,0 -5.98515,-1.89123 -2.09147,-1.91348 -2.09147,-4.87268 0,-1.73548 0.77873,-3.15946 0.80099,-1.44622 2.06922,-2.31396 1.29048,-0.86775 2.89247,-1.31273 1.17923,-0.3115 3.55995,-0.60075 4.85042,-0.57848 7.14214,-1.37947 0.0222,-0.82325 0.0222,-1.04574 0,-2.44746 -1.13474,-3.4487 -1.53522,-1.35722 -4.56118,-1.35722 -2.82571,0 -4.18294,1.00122 -1.33499,0.97899 -1.98022,3.49321 l -3.91596,-0.53399 q 0.534,-2.51422 1.75773,-4.04946 1.22373,-1.55748 3.53769,-2.38071 2.31398,-0.84549 5.36219,-0.84549 3.02596,0 4.91719,0.71199 1.89121,0.712 2.7812,1.80223 0.88999,1.06799 1.24597,2.71445 0.20027,1.02349 0.20027,3.69345 v 5.33993 q 0,5.58467 0.24474,7.07541 0.267,1.46847 1.02348,2.82571 h -4.18294 q -0.62299,-1.24598 -0.80098,-2.91471 z m -0.33376,-8.94437 q -2.18047,0.88997 -6.54141,1.51297 -2.46971,0.356 -3.4932,0.80098 -1.02348,0.445 -1.57972,1.31274 -0.55624,0.84549 -0.55624,1.89123 0,1.60197 1.20147,2.66996 1.22375,1.06798 3.55996,1.06798 2.31397,0 4.11619,-1.00122 1.80223,-1.02351 2.64771,-2.78123 0.64524,-1.35723 0.64524,-4.00493 z m 5.47254,20.9147 v -32.6848 h 3.64895 v 3.07046 q 1.29047,-1.80223 2.9147,-2.6922 1.62423,-0.91225 3.93819,-0.91225 3.02597,0 5.33993,1.55747 2.31397,1.55749 3.49321,4.40545 1.17922,2.82571 1.17922,6.20766 0,3.62671 -1.31272,6.54141 -1.29049,2.89247 -3.78245,4.44995 -2.46971,1.53522 -5.20643,1.53522 -2.00247,0 -3.60445,-0.84549 -1.57972,-0.84549 -2.60321,-2.13596 v 11.50308 z m 3.62669,-20.73671 q 0,4.56118 1.84672,6.74165 1.84674,2.18048 4.4722,2.18048 2.66996,0 4.56118,-2.24722 1.91348,-2.26947 1.91348,-7.00866 0,-4.51669 -1.86898,-6.7639 -1.84672,-2.24723 -4.42768,-2.24723 -2.55873,0 -4.53894,2.40297 -1.95798,2.38073 -1.95798,6.94191 z m 16.93111,11.68109 v -32.61805 h 4.00495 v 11.70333 q 2.80346,-3.24845 7.0754,-3.24845 2.62546,0 4.56118,1.04573 1.93573,1.0235 2.75896,2.84796 0.84549,1.82449 0.84549,5.29542 v 14.97406 h -4.00495 v -14.97406 q 0,-3.00369 -1.31272,-4.36093 -1.29049,-1.37948 -3.6712,-1.37948 -1.77997,0 -3.3597,0.93449 -1.55748,0.91224 -2.22498,2.49197 -0.66748,1.57972 -0.66748,4.36094 v 12.92707 z m 20.37981,9.10012 -0.445,-3.7602 q 1.31274,0.35601 2.29172,0.35601 1.33499,0 2.13597,-0.44501 0.80099,-0.44499 1.31274,-1.24597 0.37824,-0.60074 1.22374,-2.98147 0.11125,-0.33374 0.35599,-0.97898 l -8.96664,-23.67368 h 4.31645 l 4.91719,13.68356 q 0.95674,2.60322 1.71321,5.47343 0.68976,-2.75897 1.64649,-5.38443 l 5.05067,-13.77256 h 4.00495 l -8.98887,24.02966 q -1.44623,3.89371 -2.24723,5.36219 -1.06798,1.98022 -2.44746,2.89245 -1.37948,0.93449 -3.29296,0.93449 -1.15699,0 -2.58096,-0.48949 z"
       id="text51"
       style="font-size:31.5758px;line-height:1.3247px;font-family:Arial;-inkscape-font-specification:'Arial, Normal';text-align:center;letter-spacing:-3.31547px;word-spacing:0px;text-anchor:middle;fill:#ffffff;stroke-width:1.55002;stroke-linecap:square;paint-order:fill markers stroke"
       aria-label="photography" />
    <path
       d="m 18.037193,127.82233 10.564208,-25.00306 h 0.198701 l 10.564209,25.00306 h -4.007113 l -2.351282,-6.02722 h -9.040844 l -2.483749,6.02722 z m 7.120078,-9.00773 h 6.656445 l -3.245431,-8.27915 z m 18.691075,-4.83502 0.231816,2.5831 q 0.695449,-1.42403 2.152582,-2.25194 1.457132,-0.86103 3.377898,-0.86103 1.953882,0 3.212315,1.15908 1.258431,1.12597 1.291547,2.9805 v 10.23304 h -3.34478 v -9.07396 q -0.03312,-1.05973 -0.629216,-1.72207 -0.596099,-0.69544 -1.854532,-0.72857 -1.755181,0 -2.947382,1.45714 -1.159081,1.45714 -1.159081,3.74219 v 6.32527 h -3.344781 v -13.84275 z m 19.121548,14.17391 q -1.953881,0 -3.510363,-0.89413 -1.556482,-0.92727 -2.450632,-2.61622 -0.894149,-1.68896 -0.894149,-3.94089 0,-2.31817 0.960383,-3.94087 0.960382,-1.62273 2.583099,-2.48376 1.655832,-0.86103 3.709063,-0.86103 1.523365,0 2.914264,0.59611 1.424017,0.59609 2.251933,1.68895 V 102.0907 h 3.34478 v 25.73163 h -3.377898 v -2.02011 q -0.993498,1.02662 -2.417514,1.68894 -1.390898,0.66233 -3.112966,0.66233 z m 1.026618,-2.81489 q 1.755182,0 2.914263,-0.89416 1.192201,-0.92727 1.589599,-2.45063 v -2.74869 q -0.364282,-1.39089 -1.622715,-2.28504 -1.225316,-0.89415 -2.881147,-0.89415 -1.1922,0 -2.218816,0.59609 -1.026616,0.56298 -1.655832,1.62271 -0.5961,1.02662 -0.5961,2.3844 0,1.29155 0.5961,2.35129 0.629216,1.05974 1.655832,1.68895 1.026616,0.62923 2.218816,0.62923 z m 14.021586,-11.35902 0.264933,3.27855 q 0.596099,-1.1922 1.589597,-2.05323 0.9935,-0.86103 2.053232,-1.32468 1.09285,-0.46363 1.854533,-0.46363 l -0.165584,3.31167 q -1.556481,-0.0993 -2.748681,0.5961 -1.159082,0.69545 -1.821415,1.85453 -0.662333,1.15908 -0.662333,2.48376 v 6.15968 H 75.0376 v -13.84275 z m 13.458657,14.17391 q -2.384408,0 -4.106472,-0.92725 -1.722063,-0.9604 -2.649329,-2.61621 -0.927266,-1.68896 -0.927266,-3.80842 0,-2.05324 1.026616,-3.70907 1.059737,-1.68894 2.81492,-2.68246 1.755183,-0.99349 3.907756,-0.99349 2.781798,0 4.603219,1.62272 1.854527,1.58961 2.483753,4.50386 l -10.829145,3.74218 q 0.596091,0.96039 1.556481,1.49025 0.993495,0.52987 2.185692,0.52987 0.894151,0 1.722064,-0.29806 0.827927,-0.33117 1.556481,-0.86103 l 1.523376,2.48375 q -1.059734,0.69546 -2.351289,1.12598 -1.258436,0.39738 -2.516857,0.39738 z m -4.338293,-6.85513 7.716182,-2.81492 q -0.430508,-0.96039 -1.29154,-1.68895 -0.827928,-0.72856 -2.251931,-0.72856 -1.854541,0 -3.046738,1.29154 -1.159077,1.25844 -1.159077,3.24543 0,0.36429 0.03304,0.69546 z m 21.837158,-7.31878 3.54347,8.24603 3.27856,-8.24603 h 3.27854 l -6.32527,14.67067 -4.43764,-9.43824 -4.07334,9.43824 -6.3584,-14.67067 h 3.24543 l 3.51036,7.9811 2.48376,-5.72917 -1.05974,-2.25193 z m 16.7539,-10.16682 h 3.44412 v 20.66478 h 12.05446 v 3.34479 h -15.49858 z m 24.32088,24.34073 q -2.3844,0 -4.10647,-0.92725 -1.72206,-0.9604 -2.64933,-2.61621 -0.92728,-1.68896 -0.92728,-3.80842 0,-2.05324 1.02662,-3.70907 1.05973,-1.68894 2.81492,-2.68246 1.75519,-0.99349 3.90777,-0.99349 2.7818,0 4.6032,1.62272 1.85455,1.58961 2.48376,4.50386 l -10.82914,3.74218 q 0.5961,0.96039 1.55647,1.49025 0.99351,0.52987 2.18571,0.52987 0.89415,0 1.72207,-0.29806 0.8279,-0.33117 1.55647,-0.86103 l 1.52337,2.48375 q -1.05974,0.69546 -2.35127,1.12598 -1.25844,0.39738 -2.51687,0.39738 z m -4.33829,-6.85513 7.71619,-2.81492 q -0.43053,-0.96039 -1.29157,-1.68895 -0.8279,-0.72856 -2.25192,-0.72856 -1.85453,0 -3.04672,1.29154 -1.1591,1.25844 -1.1591,3.24543 0,0.36429 0.033,0.69546 z m 13.16055,-7.31878 h 3.34479 v 13.84275 h -3.34479 z m -0.16559,-4.96751 q 0,-0.76167 0.59611,-1.29153 0.62921,-0.52987 1.35778,-0.52987 0.72857,0 1.32467,0.52987 0.5961,0.52986 0.5961,1.29153 0,0.82793 -0.5961,1.32468 -0.5961,0.49674 -1.32467,0.49674 -0.72857,0 -1.35778,-0.49674 -0.59611,-0.49675 -0.59611,-1.32468 z m 9.68335,4.96751 0.23182,2.5831 q 0.69546,-1.42403 2.15259,-2.25194 1.45712,-0.86103 3.37789,-0.86103 1.95388,0 3.21232,1.15908 1.25843,1.12597 1.29155,2.9805 v 10.23304 h -3.34478 v -9.07396 q -0.0332,-1.05973 -0.62922,-1.72207 -0.5961,-0.69544 -1.85453,-0.72857 -1.75519,0 -2.94738,1.45714 -1.15908,1.45714 -1.15908,3.74219 v 6.32527 h -3.34478 v -13.84275 z m 13.45861,0 h 3.34478 v 13.84275 h -3.34478 z m -0.16558,-4.96751 q 0,-0.76167 0.5961,-1.29153 0.62921,-0.52987 1.35778,-0.52987 0.72857,0 1.32466,0.52987 0.5961,0.52986 0.5961,1.29153 0,0.82793 -0.5961,1.32468 -0.59609,0.49674 -1.32466,0.49674 -0.72857,0 -1.35778,-0.49674 -0.5961,-0.49675 -0.5961,-1.32468 z m 9.68336,4.96751 0.23181,2.5831 q 0.69546,-1.42403 2.15258,-2.25194 1.45714,-0.86103 3.3779,-0.86103 1.95388,0 3.2123,1.15908 1.25844,1.12597 1.29157,2.9805 v 10.23304 h -3.34479 v -9.07396 q -0.0332,-1.05973 -0.62921,-1.72207 -0.59611,-0.69544 -1.85455,-0.72857 -1.75516,0 -2.94737,1.45714 -1.15908,1.45714 -1.15908,3.74219 v 6.32527 h -3.34479 v -13.84275 z m 20.21438,20.73102 q -2.38439,0 -3.90777,-0.82791 -1.52336,-0.82793 -2.8149,-1.95389 l 1.98699,-2.28505 q 1.02661,0.99349 2.11947,1.55648 1.12597,0.56299 2.54997,0.56299 2.25194,0 3.47725,-1.05973 1.22531,-1.05974 1.25843,-2.84804 v -2.51685 q -0.69544,1.2253 -2.15257,2.0201 -1.42402,0.79479 -3.44414,0.79479 -1.92076,0 -3.51036,-0.96037 -1.5896,-0.96039 -2.54999,-2.61622 -0.96037,-1.65583 -0.96037,-3.74218 0,-2.15258 0.9935,-3.80842 1.02661,-1.68894 2.68245,-2.64933 1.65583,-0.96038 3.54347,-0.96038 1.78831,0 3.24544,0.66233 1.45713,0.66234 2.1857,1.72207 l 0.23182,-1.82141 h 3.07984 v 13.9421 q 0,1.88765 -0.99349,3.41102 -0.99352,1.55648 -2.78181,2.45063 -1.7883,0.92727 -4.23893,0.92727 z m -4.5701,-13.97523 q 0,1.32466 0.59611,2.38439 0.62921,1.05974 1.65582,1.68897 1.05974,0.59608 2.35129,0.59608 1.75518,0 2.9805,-0.89414 1.22531,-0.92726 1.65582,-2.35128 v -2.84804 q -0.43051,-1.42401 -1.68894,-2.28505 -1.25844,-0.89415 -2.94738,-0.89415 -1.29155,0 -2.35129,0.59611 -1.02661,0.5961 -1.65582,1.62272 -0.59611,1.02661 -0.59611,2.38439 z m 22.23454,7.41812 q -2.38439,0 -4.10646,-0.92725 -1.72206,-0.9604 -2.64933,-2.61621 -0.92728,-1.68896 -0.92728,-3.80842 0,-2.05324 1.02664,-3.70907 1.05971,-1.68894 2.8149,-2.68246 1.75518,-0.99349 3.90777,-0.99349 2.78179,0 4.60322,1.62272 1.85452,1.58961 2.48373,4.50386 l -10.82914,3.74218 q 0.59611,0.96039 1.55648,1.49025 0.99351,0.52987 2.18571,0.52987 0.89414,0 1.72206,-0.29806 0.82791,-0.33117 1.55648,-0.86103 l 1.52337,2.48375 q -1.05974,0.69546 -2.35128,1.12598 -1.25844,0.39738 -2.51687,0.39738 z m -4.33828,-6.85513 7.71619,-2.81492 q -0.43054,-0.96039 -1.29157,-1.68895 -0.82791,-0.72856 -2.25192,-0.72856 -1.85453,0 -3.04672,1.29154 -1.1591,1.25844 -1.1591,3.24543 0,0.36429 0.033,0.69546 z m 16.14106,-7.31878 0.26494,3.27855 q 0.59609,-1.1922 1.58959,-2.05323 0.99351,-0.86103 2.05324,-1.32468 1.09284,-0.46363 1.85453,-0.46363 l -0.16559,3.31167 q -1.55648,-0.0993 -2.74867,0.5961 -1.1591,0.69545 -1.82142,1.85453 -0.66234,1.15908 -0.66234,2.48376 v 6.15968 h -3.34477 v -13.84275 z"
       id="text52"
       style="font-size:22.9481px;line-height:2.27404px;font-family:'Reem Kufi';-inkscape-font-specification:'Reem Kufi, Normal';text-align:center;letter-spacing:-1.43654px;word-spacing:0px;text-anchor:middle;fill:#ffffff;stroke-width:2.66084;stroke-linecap:square;paint-order:fill markers stroke"
       aria-label="Andrew Leininger" />
    <path
       sodipodi:type="star"
       style="display:none;vector-effect:non-scaling-stroke;fill:none;fill-opacity:1;stroke:#ffffff;stroke-width:0.170558;stroke-linecap:square;stroke-dasharray:none;stroke-opacity:1;-inkscape-stroke:hairline;paint-order:fill markers stroke"
       id="path129"
       inkscape:flatsided="false"
       sodipodi:sides="3"
       sodipodi:cx="42.979832"
       sodipodi:cy="215.7419"
       sodipodi:r1="40.732521"
       sodipodi:r2="20.366261"
       sodipodi:arg1="-1.5707963"
       sodipodi:arg2="-0.52359878"
       inkscape:rounded="1.0408341e-17"
       inkscape:randomized="0"
       d="m 42.979833,175.00938 17.637698,30.54939 17.637698,30.54939 -35.275397,0 -35.2753988,0 17.6376998,-30.54939 z"
       inkscape:transform-center-y="-15.933172"
       transform="matrix(1.5646628,0,0,1.5646628,65.175007,-198.77473)"
       sodipodi:insensitive="true" />
    <path
       sodipodi:type="star"
       style="display:none;vector-effect:non-scaling-stroke;fill:none;fill-opacity:1;stroke:#ffffff;stroke-width:0.239307;stroke-linecap:square;stroke-dasharray:none;stroke-opacity:1;-inkscape-stroke:hairline;paint-order:fill markers stroke"
       id="path130"
       inkscape:flatsided="false"
       sodipodi:sides="3"
       sodipodi:cx="42.979832"
       sodipodi:cy="215.7419"
       sodipodi:r1="40.732521"
       sodipodi:r2="20.366261"
       sodipodi:arg1="-1.5707963"
       sodipodi:arg2="-0.52359878"
       inkscape:rounded="1.0408341e-17"
       inkscape:randomized="0"
       d="m 42.979833,175.00938 17.637698,30.54939 17.637698,30.54939 -35.275397,0 -35.2753988,0 17.6376998,-30.54939 z"
       inkscape:transform-center-y="-14.247568"
       transform="matrix(1.3991359,0,0,1.3991359,72.289326,-163.06362)"
       inkscape:transform-center-x="-1.613446e-06"
       sodipodi:insensitive="true" />
    <path
       style="fill:none;fill-opacity:1;stroke:#ffffff;stroke-width:0.865866;stroke-linecap:round;stroke-dasharray:none;stroke-opacity:1;paint-order:fill markers stroke"
       d="M 63.720003,171.57261 52.772757,190.53378 H 212.07513 L 200.93473,171.238"
       id="path131" />
    <path
       style="fill:none;fill-opacity:1;stroke:#ffffff;stroke-width:0.865866;stroke-linecap:round;stroke-dasharray:none;stroke-opacity:1;paint-order:fill markers stroke"
       d="m 195.47239,171.5069 8.17639,14.16195 H 61.19912 l 8.035232,-13.91742"
       id="path132"
       sodipodi:nodetypes="cccc" />
    <path
       style="fill:none;fill-opacity:1;stroke:#ffffff;stroke-width:0.865866;stroke-linecap:round;stroke-dasharray:none;stroke-opacity:1;paint-order:fill markers stroke"
       d="m 81.905015,140.09416 4.894374,-8.47728"
       id="path133" />
    <path
       style="fill:none;fill-opacity:1;stroke:#ffffff;stroke-width:0.865866;stroke-linecap:round;stroke-dasharray:none;stroke-opacity:1;paint-order:fill markers stroke"
       d="m 87.354409,140.3855 4.95772,-8.587"
       id="path134" />
    <path
       style="fill:none;fill-opacity:1;stroke:#ffffff;stroke-width:0.865866;stroke-linecap:round;stroke-dasharray:none;stroke-opacity:1;paint-order:fill markers stroke"
       d="m 176.9833,139.48287 -4.72962,-8.19191"
       id="path135" />
    <path
       style="fill:none;fill-opacity:1;stroke:#ffffff;stroke-width:0.865866;stroke-linecap:round;stroke-dasharray:none;stroke-opacity:1;paint-order:fill markers stroke"
       d="m 182.71934,139.68803 -4.73311,-8.198"
       id="path136" />
    <path
       style="fill:none;fill-opacity:1;stroke:#ffffff;stroke-width:0.865866;stroke-linecap:round;stroke-dasharray:none;stroke-opacity:1;paint-order:fill markers stroke"
       d="m 104.51008,110.65208 27.91387,-48.348251 24.07414,41.697631"
       id="path137" />
    <path
       style="fill:none;fill-opacity:1;stroke:#ffffff;stroke-width:0.865866;stroke-linecap:round;stroke-dasharray:none;stroke-opacity:1;paint-order:fill markers stroke"
       d="M 162.07021,103.92267 132.42395,52.573872 98.837283,110.74769"
       id="path138"
       sodipodi:nodetypes="ccc" />
    <text
       xml:space="preserve"
       style="font-style:normal;font-variant:normal;font-weight:normal;font-stretch:normal;font-size:31.5758px;line-height:1.3247px;font-family:Arial;-inkscape-font-specification:'Arial, Normal';font-variant-ligatures:normal;font-variant-caps:normal;font-variant-numeric:normal;font-variant-east-asian:normal;text-align:center;letter-spacing:-3.31547px;word-spacing:0px;writing-mode:lr-tb;direction:ltr;text-anchor:middle;display:inline;fill:#ffffff;fill-opacity:1;stroke-width:1.07408;stroke-linecap:square;paint-order:fill markers stroke"
       x="-98.498657"
       y="154.57495"
       id="text138"><tspan
         sodipodi:role="line"
         id="tspan138"
         style="font-style:normal;font-variant:normal;font-weight:normal;font-stretch:normal;font-size:31.5758px;font-family:Arial;-inkscape-font-specification:'Arial, Normal';font-variant-ligatures:normal;font-variant-caps:normal;font-variant-numeric:normal;font-variant-east-asian:normal;fill:#ffffff;fill-opacity:1;stroke-width:1.07408"
         x="-100.15639"
         y="154.57495">photography</tspan></text>
    <text
       xml:space="preserve"
       style="font-style:normal;font-variant:normal;font-weight:normal;font-stretch:normal;font-size:22.9481px;line-height:2.27404px;font-family:'Reem Kufi';-inkscape-font-specification:'Reem Kufi, Normal';font-variant-ligatures:normal;font-variant-caps:normal;font-variant-numeric:normal;font-variant-east-asian:normal;text-align:center;letter-spacing:-1.43654px;word-spacing:0px;writing-mode:lr-tb;direction:ltr;text-anchor:middle;display:inline;fill:#ffffff;fill-opacity:1;stroke-width:1.84382;stroke-linecap:square;paint-order:fill markers stroke"
       x="-97.481964"
       y="127.19917"
       id="text139"><tspan
         sodipodi:role="line"
         id="tspan139"
         style="font-style:normal;font-variant:normal;font-weight:normal;font-stretch:normal;font-size:22.9481px;font-family:'Reem Kufi';-inkscape-font-specification:'Reem Kufi, Normal';font-variant-ligatures:normal;font-variant-caps:normal;font-variant-numeric:normal;font-variant-east-asian:normal;letter-spacing:-1.43654px;stroke-width:1.84382"
         x="-98.200226"
         y="127.19917"
         dx="0 0 0 0 0 0 4.7452989 -3.0217841">Andrew Leininger</tspan></text>
    <path
       style="fill:none;fill-opacity:1;stroke:#ffffff;stroke-width:0.6;stroke-linecap:round;stroke-dasharray:none;stroke-opacity:1;paint-order:fill markers stroke"
       d="m -145.20494,157.51582 -7.58587,13.1391 h 110.3882 l -7.71972,-13.37096"
       id="path139" />
    <path
       style="fill:none;fill-opacity:1;stroke:#ffffff;stroke-width:0.6;stroke-linecap:round;stroke-dasharray:none;stroke-opacity:1;paint-order:fill markers stroke"
       d="m -53.90745,157.47029 5.66582,9.81349 h -98.71015 l 5.56799,-9.64405"
       id="path140"
       sodipodi:nodetypes="cccc" />
    <path
       style="fill:none;fill-opacity:1;stroke:#ffffff;stroke-width:0.6;stroke-linecap:round;stroke-dasharray:none;stroke-opacity:1;paint-order:fill markers stroke"
       d="m -132.60368,135.70291 3.39154,-5.87431"
       id="path141" />
    <path
       style="fill:none;fill-opacity:1;stroke:#ffffff;stroke-width:0.6;stroke-linecap:round;stroke-dasharray:none;stroke-opacity:1;paint-order:fill markers stroke"
       d="m -128.82754,135.90479 3.43544,-5.95034"
       id="path142" />
    <path
       style="fill:none;fill-opacity:1;stroke:#ffffff;stroke-width:0.6;stroke-linecap:round;stroke-dasharray:none;stroke-opacity:1;paint-order:fill markers stroke"
       d="m -66.71942,135.27932 -3.27737,-5.67657"
       id="path143" />
    <path
       style="fill:none;fill-opacity:1;stroke:#ffffff;stroke-width:0.6;stroke-linecap:round;stroke-dasharray:none;stroke-opacity:1;paint-order:fill markers stroke"
       d="m -62.74464,135.42148 -3.2798,-5.68078"
       id="path144" />
    <path
       style="fill:none;fill-opacity:1;stroke:#ffffff;stroke-width:0.6;stroke-linecap:round;stroke-dasharray:none;stroke-opacity:1;paint-order:fill markers stroke"
       d="m -116.93956,115.30109 19.34285,-33.502807 16.68212,28.894277"
       id="path145" />
    <path
       style="fill:none;fill-opacity:1;stroke:#ffffff;stroke-width:0.6;stroke-linecap:round;stroke-dasharray:none;stroke-opacity:1;paint-order:fill markers stroke"
       d="m -77.05341,110.63796 -20.5433,-35.582027 -23.2738,40.311407"
       id="path146"
       sodipodi:nodetypes="ccc" />
  </g>
</svg>
